<svg width="118" height="119" viewBox="0 0 118 119" fill="none" xmlns="http://www.w3.org/2000/svg">
<rect y="19" width="50" height="50" fill="#995B5D"/>
<rect x="50" y="69" width="50" height="50" fill="#B16A6C"/>
<rect y="69" width="50" height="50" fill="#32312F"/>
<path d="M15.0002 65.9999L14.0002 68.9999H22L21 65.9999C25.4 62.3998 22.8333 59.4998 21 58.4999C19.5001 57.8332 16.0002 57.0999 14.0002 59.4999C12.0002 61.8999 13.8336 64.8332 15.0002 65.9999Z" fill="#32312F"/>
<path d="M47.1522 97.4295L50.1522 98.4295L50.1522 90.4297L47.1522 91.4297C43.5521 87.0297 40.6522 89.5964 39.6522 91.4297C38.9855 92.9296 38.2522 96.4295 40.6522 98.4295C43.0522 100.429 45.9855 98.5961 47.1522 97.4295Z" fill="#B16A6C"/>
<path d="M47.1522 43.4295L50.1522 44.4295L50.1522 36.4297L47.1522 37.4297C43.5521 33.0297 40.6522 35.5964 39.6522 37.4297C38.9855 38.9296 38.2522 42.4295 40.6522 44.4295C43.0522 46.4295 45.9855 44.5961 47.1522 43.4295Z" fill="white"/>
<rect x="55.542" y="14.2852" width="50" height="50" transform="rotate(-16.6007 55.542 14.2852)" fill="#32312F"/>
<path d="M59.792 38.5097L62.9527 38.6109L60.6671 30.9446L58.0779 32.76C53.3707 29.572 51.325 32.8602 50.8905 34.9028C50.6801 36.5306 50.9773 40.0941 53.8486 41.3251C56.72 42.556 59.0073 39.9611 59.792 38.5097Z" fill="#32312F"/>
</svg>
