<svg width="234" height="218" viewBox="0 0 234 218" fill="none" xmlns="http://www.w3.org/2000/svg">
<path d="M207 53.5328C207.422 52.2119 208.063 51.2129 208.923 50.5358C209.808 49.8668 210.989 49.1941 212.465 48.5177C213.546 48.0234 214.359 47.583 214.902 47.1967C215.479 46.7931 215.873 46.261 216.084 45.6005C216.384 44.6606 216.238 43.8023 215.647 43.0254C215.088 42.2313 214.187 41.6354 212.942 41.2379C211.748 40.8566 210.6 40.7698 209.498 40.9777C208.429 41.1683 207.436 41.6067 206.517 42.2929L202.77 38.115C204.356 36.83 206.193 36.031 208.281 35.7179C210.394 35.413 212.695 35.6581 215.184 36.4532C218.105 37.3862 220.244 38.755 221.599 40.5595C222.98 42.3722 223.317 44.3835 222.611 46.5935C222.278 47.635 221.809 48.4927 221.201 49.1666C220.62 49.8486 219.986 50.3879 219.299 50.7845C218.646 51.1638 217.812 51.5833 216.798 52.0431C215.59 52.5812 214.677 53.0734 214.058 53.5197C213.448 53.9407 213.013 54.5576 212.753 55.3704L207 53.5328ZM206.841 64.0217C205.8 63.6891 205.029 63.079 204.528 62.1913C204.061 61.2864 203.982 60.3513 204.291 59.386C204.599 58.4207 205.197 57.73 206.086 57.314C206.983 56.8726 207.965 56.8223 209.032 57.1631C210.099 57.5038 210.869 58.114 211.344 58.9935C211.827 59.8476 211.915 60.7573 211.606 61.7226C211.298 62.6879 210.679 63.3999 209.748 63.8586C208.852 64.3 207.883 64.3544 206.841 64.0217Z" fill="#32312F" class="svg-elem-1"></path>
<path d="M15.0561 74.6455C14.5884 73.7949 14.3897 72.9882 14.46 72.2252C14.5468 71.4532 14.7737 70.5295 15.141 69.4541C15.4109 68.6665 15.5786 68.0418 15.644 67.5797C15.7168 67.0923 15.6363 66.636 15.4024 66.2107C15.0696 65.6055 14.5634 65.2661 13.8838 65.1925C13.2115 65.0935 12.4747 65.2644 11.6732 65.7051C10.9045 66.1279 10.3075 66.6693 9.88219 67.3292C9.46426 67.9638 9.20826 68.6798 9.11418 69.4771L5.18751 69.3678C5.29879 67.9432 5.77767 66.6253 6.62414 65.4142C7.48697 64.1941 8.71985 63.1433 10.3228 62.2617C12.2038 61.2273 13.9289 60.8005 15.4983 60.9813C17.084 61.1531 18.2681 61.9505 19.0507 63.3735C19.4195 64.0441 19.6289 64.6959 19.6787 65.3289C19.7449 65.9528 19.7134 66.5347 19.5842 67.0745C19.4623 67.5889 19.2738 68.2145 19.0186 68.9513C18.7103 69.8239 18.5205 70.5247 18.4493 71.0538C18.3692 71.5666 18.473 72.0847 18.7608 72.6081L15.0561 74.6455ZM20.3074 79.7782C19.6368 80.147 18.9556 80.2447 18.2637 80.0713C17.5792 79.8726 17.0661 79.4624 16.7243 78.8409C16.3824 78.2193 16.3199 77.5827 16.5367 76.9309C16.7444 76.2628 17.1918 75.7398 17.8787 75.362C18.5657 74.9842 19.2469 74.8865 19.9224 75.0689C20.5889 75.2349 21.0931 75.6287 21.4349 76.2503C21.7767 76.8718 21.8401 77.5293 21.625 78.2228C21.4172 78.8909 20.978 79.4094 20.3074 79.7782Z" fill="#32312F" class="svg-elem-2"></path>
<path d="M110.569 21.0424C110.91 20.1338 111.394 19.458 112.019 19.015C112.662 18.5785 113.511 18.1499 114.566 17.7291C115.34 17.4216 115.923 17.1424 116.317 16.8915C116.734 16.6296 117.029 16.2715 117.199 15.8172C117.442 15.1707 117.371 14.5655 116.984 14.0015C116.622 13.4266 116.013 12.9783 115.157 12.6565C114.336 12.3478 113.536 12.2467 112.758 12.3531C112.004 12.4487 111.294 12.7201 110.627 13.1675L108.156 10.1145C109.31 9.27211 110.622 8.77828 112.093 8.63304C113.58 8.49436 115.181 8.74685 116.893 9.3905C118.902 10.1458 120.349 11.1781 121.233 12.4875C122.134 13.8034 122.299 15.2215 121.728 16.7416C121.458 17.458 121.1 18.0411 120.651 18.4908C120.221 18.9471 119.758 19.3017 119.264 19.5548C118.794 19.7969 118.197 20.0608 117.471 20.3465C116.608 20.6801 115.952 20.992 115.504 21.2822C115.063 21.555 114.737 21.9709 114.527 22.5301L110.569 21.0424ZM110.088 28.3698C109.372 28.1005 108.854 27.6468 108.536 27.0086C108.241 26.3595 108.219 25.7029 108.468 25.0389C108.718 24.375 109.161 23.9132 109.797 23.6537C110.439 23.3768 111.127 23.3762 111.861 23.6521C112.595 23.9279 113.113 24.3816 113.414 25.0133C113.721 25.6274 113.75 26.2665 113.501 26.9305C113.251 27.5945 112.793 28.0704 112.126 28.3582C111.484 28.6352 110.804 28.6391 110.088 28.3698Z" fill="#32312F" class="svg-elem-3"></path>
<path d="M124 218C168.735 218 205 181.735 205 137H43C43 181.735 79.2649 218 124 218Z" fill="#B16A6C" class="svg-elem-4"></path>
<path d="M129.5 182L84.8997 137L174.1 137L129.5 182Z" fill="#CA7C7E" class="svg-elem-5"></path>
<path d="M98 214.095L174.055 137H204.984C205.998 184.559 158.844 232.117 98 214.095Z" fill="#995B5D" class="svg-elem-6"></path>
<path d="M39.232 155.36V150.68C41.248 150.68 42.472 150.08 42.904 148.88C43.336 147.728 43.552 146.192 43.552 144.272V113.816C43.552 112.952 43.576 111.992 43.624 110.936C43.672 109.832 43.744 108.752 43.84 107.696C43.072 107.744 42.16 107.792 41.104 107.84C40.048 107.84 39.256 107.864 38.728 107.912V102.44C42.088 102.44 44.656 102.2 46.432 101.72C48.208 101.24 49.336 100.76 49.816 100.28H53.344C53.44 100.76 53.512 101.36 53.56 102.08C53.608 102.752 53.656 103.304 53.704 103.736C55.384 102.296 57.04 101.288 58.672 100.712C60.352 100.136 61.936 99.848 63.424 99.848C66.304 99.848 68.824 100.592 70.984 102.08C73.192 103.568 74.896 105.68 76.096 108.416C77.344 111.152 77.968 114.368 77.968 118.064C77.968 121.904 77.224 125.36 75.736 128.432C74.248 131.456 72.16 133.832 69.472 135.56C66.832 137.288 63.712 138.152 60.112 138.152C58.816 138.152 57.64 138.008 56.584 137.72C55.576 137.48 54.616 137.192 53.704 136.856V143.768C53.704 144.44 53.68 145.376 53.632 146.576C53.632 147.824 53.584 149 53.488 150.104C54.256 150.008 55.096 149.936 56.008 149.888C56.92 149.888 57.616 149.888 58.096 149.888V155.36H39.232ZM58.96 132.752C61.168 132.704 62.872 132.056 64.072 130.808C65.32 129.512 66.184 127.832 66.664 125.768C67.144 123.704 67.384 121.496 67.384 119.144C67.384 116.936 67.12 114.848 66.592 112.88C66.064 110.912 65.224 109.328 64.072 108.128C62.92 106.88 61.408 106.28 59.536 106.328C58.336 106.376 57.232 106.688 56.224 107.264C55.216 107.792 54.376 108.536 53.704 109.496V131.456C54.232 131.792 54.976 132.104 55.936 132.392C56.896 132.68 57.904 132.8 58.96 132.752ZM83.1942 132.32C85.1622 132.32 86.3622 131.744 86.7942 130.592C87.2262 129.392 87.4422 127.832 87.4422 125.912V113.816C87.4422 112.952 87.4662 111.992 87.5142 110.936C87.5622 109.832 87.6342 108.752 87.7302 107.696C86.9622 107.744 86.0502 107.792 84.9942 107.84C83.9862 107.84 83.2182 107.864 82.6902 107.912V102.44H85.5702C87.4422 102.44 89.1462 102.2 90.6822 101.72C92.2662 101.24 93.2982 100.76 93.7782 100.28H97.3062C97.4022 100.76 97.4742 101.672 97.5222 103.016C97.5702 104.312 97.5942 105.464 97.5942 106.472C99.5142 104.072 101.314 102.368 102.994 101.36C104.674 100.352 106.378 99.848 108.106 99.848C109.786 99.848 111.25 100.328 112.498 101.288C113.746 102.2 114.37 103.712 114.37 105.824C114.37 106.544 114.202 107.312 113.866 108.128C113.53 108.896 113.002 109.544 112.282 110.072C111.562 110.6 110.578 110.864 109.33 110.864C108.37 110.864 107.386 110.576 106.378 110C105.37 109.424 104.794 108.32 104.65 106.688C103.69 106.688 102.73 107.096 101.77 107.912C100.81 108.68 99.9462 109.616 99.1782 110.72C98.4582 111.776 97.9542 112.76 97.6662 113.672V125.408C97.6662 126.08 97.6422 127.04 97.5942 128.288C97.5462 129.488 97.4742 130.64 97.3782 131.744C98.1462 131.648 98.9862 131.6 99.8982 131.6C100.858 131.552 101.578 131.528 102.058 131.528V137H83.1942V132.32ZM117.788 132.32C119.756 132.32 120.956 131.744 121.388 130.592C121.82 129.392 122.036 127.832 122.036 125.912V113.96C122.036 113.096 122.06 112.112 122.108 111.008C122.156 109.856 122.228 108.752 122.324 107.696C121.556 107.744 120.644 107.792 119.588 107.84C118.58 107.84 117.812 107.864 117.284 107.912V102.44C120.596 102.44 123.14 102.2 124.916 101.72C126.74 101.24 127.892 100.76 128.372 100.28H132.26V125.408C132.26 126.08 132.236 127.04 132.188 128.288C132.14 129.488 132.068 130.64 131.972 131.744C132.74 131.648 133.58 131.6 134.492 131.6C135.452 131.552 136.172 131.528 136.652 131.528V137H117.788V132.32ZM126.788 94.592C125.156 94.592 123.812 94.016 122.756 92.864C121.7 91.712 121.172 90.32 121.172 88.688C121.172 87.056 121.724 85.664 122.828 84.512C123.932 83.36 125.228 82.784 126.716 82.784C128.252 82.784 129.524 83.36 130.532 84.512C131.588 85.664 132.116 87.056 132.116 88.688C132.116 90.32 131.636 91.712 130.676 92.864C129.716 94.016 128.42 94.592 126.788 94.592ZM141.343 137V132.32C143.311 132.32 144.511 131.744 144.943 130.592C145.375 129.392 145.591 127.832 145.591 125.912V113.816C145.591 112.952 145.615 111.992 145.663 110.936C145.711 109.832 145.783 108.752 145.879 107.696C145.111 107.744 144.199 107.792 143.143 107.84C142.135 107.84 141.367 107.864 140.839 107.912V102.44C144.151 102.44 146.695 102.2 148.471 101.72C150.295 101.24 151.447 100.76 151.927 100.28H155.455C155.551 100.904 155.599 101.36 155.599 101.648C155.599 101.936 155.599 102.224 155.599 102.512C155.647 102.752 155.743 103.208 155.887 103.88C156.847 103.112 157.951 102.44 159.199 101.864C160.447 101.24 161.695 100.76 162.943 100.424C164.191 100.04 165.295 99.848 166.255 99.848C170.671 99.848 173.791 101.12 175.615 103.664C177.487 106.16 178.423 110.192 178.423 115.76V125.408C178.423 126.08 178.399 127.04 178.351 128.288C178.303 129.488 178.231 130.64 178.135 131.744C178.951 131.648 179.815 131.6 180.727 131.6C181.639 131.552 182.335 131.528 182.815 131.528V137H163.951V132.32C165.967 132.32 167.191 131.744 167.623 130.592C168.055 129.392 168.271 127.832 168.271 125.912L168.199 115.688C168.199 112.568 167.743 110.264 166.831 108.776C165.967 107.24 164.479 106.472 162.367 106.472C161.167 106.472 159.967 106.736 158.767 107.264C157.615 107.792 156.631 108.416 155.815 109.136V125.408C155.815 126.08 155.791 127.04 155.743 128.288C155.695 129.488 155.623 130.64 155.527 131.744C156.295 131.648 157.135 131.6 158.047 131.6C159.007 131.552 159.727 131.528 160.207 131.528V137H141.343ZM200.95 138.152C199.51 138.152 198.118 137.984 196.774 137.648C195.478 137.312 194.278 136.688 193.174 135.776C192.118 134.816 191.278 133.424 190.654 131.6C190.03 129.776 189.718 127.352 189.718 124.328L189.862 106.976H184.966V101C186.454 100.952 187.894 100.448 189.286 99.488C190.678 98.528 191.854 97.28 192.814 95.744C193.822 94.208 194.494 92.6 194.83 90.92H200.158L200.086 101H209.23V106.544L200.086 106.76L200.014 124.472C200.014 125.576 200.11 126.68 200.302 127.784C200.542 128.84 200.974 129.728 201.598 130.448C202.222 131.12 203.134 131.456 204.334 131.456C205.006 131.456 205.918 131.216 207.07 130.736C208.27 130.256 209.542 129.056 210.886 127.136L214.342 130.376C213.046 132.296 211.702 133.784 210.31 134.84C208.918 135.896 207.574 136.664 206.278 137.144C205.03 137.624 203.926 137.912 202.966 138.008C202.006 138.104 201.334 138.152 200.95 138.152Z" fill="#32312F" class="svg-elem-7"></path>
<path d="M96.536 93.864C92.552 93.864 88.688 93.336 84.944 92.28C81.248 91.176 78.272 89.76 76.016 88.032L79.976 79.248C82.136 80.832 84.704 82.104 87.68 83.064C90.656 84.024 93.632 84.504 96.608 84.504C99.92 84.504 102.368 84.024 103.952 83.064C105.536 82.056 106.328 80.736 106.328 79.104C106.328 77.904 105.848 76.92 104.888 76.152C103.976 75.336 102.776 74.688 101.288 74.208C99.848 73.728 97.88 73.2 95.384 72.624C91.544 71.712 88.4 70.8 85.952 69.888C83.504 68.976 81.392 67.512 79.616 65.496C77.888 63.48 77.024 60.792 77.024 57.432C77.024 54.504 77.816 51.864 79.4 49.512C80.984 47.112 83.36 45.216 86.528 43.824C89.744 42.432 93.656 41.736 98.264 41.736C101.48 41.736 104.624 42.12 107.696 42.888C110.768 43.656 113.456 44.76 115.76 46.2L112.16 55.056C107.504 52.416 102.848 51.096 98.192 51.096C94.928 51.096 92.504 51.624 90.92 52.68C89.384 53.736 88.616 55.128 88.616 56.856C88.616 58.584 89.504 59.88 91.28 60.744C93.104 61.56 95.864 62.376 99.56 63.192C103.4 64.104 106.544 65.016 108.992 65.928C111.44 66.84 113.528 68.28 115.256 70.248C117.032 72.216 117.92 74.88 117.92 78.24C117.92 81.12 117.104 83.76 115.472 86.16C113.888 88.512 111.488 90.384 108.272 91.776C105.056 93.168 101.144 93.864 96.536 93.864ZM174.346 42.6L152.53 93H141.01L119.266 42.6H131.866L147.202 78.6L162.754 42.6H174.346Z" fill="#32312F" class="svg-elem-8"></path>
<ellipse cx="127" cy="88.5" rx="6" ry="6.5" fill="#B16A6C" class="svg-elem-9"></ellipse>
</svg>
