<svg width="128" height="152" viewBox="0 0 128 152" fill="none" xmlns="http://www.w3.org/2000/svg">
<rect x="57.1426" y="16.293" width="22.0952" height="135.707" fill="#32312F"/>
<path d="M79.2378 16.3544H57.1426L68.1902 0L79.2378 16.3544Z" fill="#32312F"/>
<path d="M16.191 54.132L16.1915 25.0373L81.1526 30.8076L81.1595 59.9865L16.191 54.132Z" fill="#B16A6C"/>
<path d="M16.2278 25.0376L16.2348 54.2165L0.00395216 38.0254L16.2278 25.0376Z" fill="#B16A6C"/>
<path d="M111.437 51.9492L111.437 80.81L46.4768 88.8243L46.4768 59.6454L111.437 51.9492Z" fill="#995B5D"/>
<path d="M111.4 81.1281L111.4 51.9492L128 64.9135L111.4 81.1281Z" fill="#995B5D"/>
<path d="M16.191 109.929L16.1915 80.8346L81.1526 86.605L81.1595 115.784L16.191 109.929Z" fill="#B16A6C"/>
<path d="M16.2278 80.835L16.2348 110.014L0.00395216 93.8228L16.2278 80.835Z" fill="#B16A6C"/>
</svg>
