<svg width="219" height="209" viewBox="0 0 219 209" fill="none" xmlns="http://www.w3.org/2000/svg">
<rect y="139.252" width="34.8739" height="34.8739" fill="#995B5D"/>
<rect x="34.874" y="174.126" width="34.8739" height="34.8739" fill="#B16A6C"/>
<rect y="174.126" width="34.8739" height="34.8739" fill="#32312F"/>
<path d="M10.4617 172.034L9.76422 174.126H15.3439L14.6464 172.034C17.7153 169.523 15.9251 167.5 14.6464 166.803C13.6003 166.338 11.1592 165.826 9.76422 167.5C8.36927 169.174 9.64798 171.22 10.4617 172.034Z" fill="#32312F"/>
<path d="M32.8872 193.955L34.9796 194.653L34.9796 189.073L32.8872 189.771C30.3762 186.702 28.3535 188.492 27.6561 189.771C27.1911 190.817 26.6796 193.258 28.3536 194.653C30.0275 196.048 32.0734 194.769 32.8872 193.955Z" fill="#B16A6C"/>
<path d="M32.8872 156.291L34.9796 156.989L34.9796 151.409L32.8872 152.107C30.3762 149.038 28.3535 150.828 27.6561 152.107C27.1911 153.153 26.6796 155.594 28.3536 156.989C30.0275 158.384 32.0734 157.105 32.8872 156.291Z" fill="white"/>
<rect x="38.7393" y="135.963" width="34.8739" height="34.8739" transform="rotate(-16.6007 38.7393 135.963)" fill="#32312F"/>
<path d="M41.7023 152.86L43.9068 152.93L42.3127 147.583L40.5067 148.85C37.2236 146.626 35.7967 148.919 35.4937 150.344C35.3469 151.48 35.5542 153.965 37.5569 154.824C39.5596 155.682 41.155 153.872 41.7023 152.86Z" fill="#32312F"/>
<rect x="176.373" y="130.419" width="13.2916" height="78.4559" fill="#32312F"/>
<path d="M189.665 130.455H176.373L183.019 121L189.665 130.455Z" fill="#32312F"/>
<path d="M151.74 152.295L151.741 135.474L190.819 138.81L190.823 155.68L151.74 152.295Z" fill="#B16A6C"/>
<path d="M151.761 135.475L151.765 152.344L142.002 142.984L151.761 135.475Z" fill="#B16A6C"/>
<path d="M209.036 151.033L209.036 167.718L169.959 172.352L169.959 155.483L209.036 151.033Z" fill="#995B5D"/>
<path d="M209.013 167.903L209.013 151.034L218.999 158.529L209.013 167.903Z" fill="#995B5D"/>
<path d="M151.74 184.553L151.741 167.733L190.819 171.069L190.823 187.938L151.74 184.553Z" fill="#B16A6C"/>
<path d="M151.761 167.733L151.765 184.602L142.002 175.242L151.761 167.733Z" fill="#B16A6C"/>
<circle cx="40.069" cy="47.069" r="40.069" fill="#B16A6C"/>
<path d="M40.0693 45.161L48.6556 7.9541C62.9659 11.7702 72.6651 22.2645 76.3222 29.8966L40.0693 45.161Z" fill="#CA7C7E"/>
<path d="M40.069 45.1613L76.3219 29.8969C83.4773 45.1608 79.1842 58.9942 74.8911 67.1034L40.069 45.1613Z" fill="#995B5D"/>
<path d="M3.56745 81.6459C4.03755 61.9208 4.97775 21.0783 4.97775 21.0783H10.9715H16.9653V21.7745L19.0807 81.6459L11.3241 90L3.56745 81.6459Z" fill="#32312F"/>
<path d="M16.9653 19.6859H4.97775L2.8623 12.7241H19.0807L16.9653 19.6859Z" fill="#32312F"/>
<path d="M176.197 35.605L209.277 92.9011H143.117L176.197 35.605Z" fill="#995B5D"/>
<circle cx="176.714" cy="44.3794" r="29.4223" fill="#B16A6C"/>
<rect x="142.441" width="68.3187" height="25.6307" rx="8" fill="#32312F"/>
<circle cx="168.061" cy="12.5586" r="2.51172" fill="#F1EEE7"/>
<circle cx="176.098" cy="12.5586" r="2.51172" fill="#F1EEE7"/>
<circle cx="184.136" cy="12.5586" r="2.51172" fill="#F1EEE7"/>
<path d="M172.069 29.9139L151.359 24.9282H165.421L172.069 29.9139Z" fill="#32312F"/>
</svg>
