<svg width="213" height="180" viewBox="0 0 213 180" fill="none" xmlns="http://www.w3.org/2000/svg">
<path d="M111.576 0V35.0322H138.085C129.325 8.87481 116.763 0.778492 111.576 0Z" fill="#32312F"/>
<path d="M146.729 35.0322C143.502 20.0851 134.627 7.39568 130.593 2.91935C150.878 8.52449 167.09 26.6634 172.661 35.0322H146.729Z" fill="#32312F"/>
<path d="M111 74.5811V43.7902V43.2063H140.39C143.617 52.5482 144.424 68.0153 144.424 74.5811H111Z" fill="#32312F"/>
<path d="M152.492 74.5811C152.031 62.3132 149.994 48.553 149.034 43.2063H177.271L177.847 43.7902C182.919 53.1321 184.571 64.031 184.763 68.3127C171.393 69.2469 161.136 73.3729 157.678 75.3191H152.492V74.5811Z" fill="#32312F"/>
<path d="M111 118.525V83.4933V82.9094H141.542C125.868 93.6526 114.65 111.13 111 118.525Z" fill="#32312F"/>
<path d="M143.847 136.625V91.0836C125.407 105.096 116.186 127.283 113.881 136.625H143.847Z" fill="#32312F"/>
<path d="M152.492 130.203V85.8288V85.2449C170.932 76.8372 181.497 75.903 184.763 76.4869V98.09L152.492 130.203Z" fill="#32312F"/>
<path d="M193.983 89.332V76.4869C200.898 76.0198 204.548 77.46 205.508 78.2385L193.983 89.332Z" fill="#32312F"/>
<path d="M198.017 96.3384L210.695 84.0772C212.078 86.4126 212.808 93.6137 213 96.9223L198.017 96.3384Z" fill="#32312F"/>
<path d="M212.424 105.096H189.373L158.254 136.625L203.78 136.042C210.695 123.897 212.424 110.351 212.424 105.096Z" fill="#32312F"/>
<path d="M198.593 144.8H150.186L117.915 176.912C159.868 186.721 189.181 159.591 198.593 144.8Z" fill="#32312F"/>
<path d="M112.153 169.906L136.932 145.967L137.508 145.383H112.153C111.692 152.857 111.96 164.846 112.153 169.906Z" fill="#32312F"/>
<path d="M101.424 1V36.0322H74.9153C83.6746 9.87481 96.2373 1.77849 101.424 1Z" fill="#B16A6C"/>
<path d="M66.2712 36.0322C69.4983 21.0851 78.3729 8.39568 82.4068 3.91935C62.122 9.52449 45.9096 27.6634 40.339 36.0322H66.2712Z" fill="#B16A6C"/>
<path d="M102 75.5811V44.7902V44.2063H72.6102C69.3831 53.5482 68.5763 69.0153 68.5763 75.5811H102Z" fill="#B16A6C"/>
<path d="M60.5085 75.5811C60.9695 63.3132 63.0057 49.553 63.9661 44.2063H35.7288L35.1525 44.7902C30.0814 54.1321 28.4294 65.031 28.2373 69.3127C41.6068 70.2469 51.8644 74.3729 55.322 76.3191H60.5085V75.5811Z" fill="#B16A6C"/>
<path d="M102 119.525V84.4933V83.9094H71.4576C87.1322 94.6526 98.3503 112.13 102 119.525Z" fill="#B16A6C"/>
<path d="M69.1525 137.625V92.0836C87.5932 106.096 96.8136 128.283 99.1186 137.625H69.1525Z" fill="#B16A6C"/>
<path d="M60.5085 131.203V86.8288V86.2449C42.0678 77.8372 31.5028 76.903 28.2373 77.4869V99.09L60.5085 131.203Z" fill="#B16A6C"/>
<path d="M19.017 90.332V77.4869C12.1017 77.0198 8.45198 78.46 7.49153 79.2385L19.017 90.332Z" fill="#B16A6C"/>
<path d="M14.9831 97.3384L2.30508 85.0772C0.922035 87.4126 0.192093 94.6137 0 97.9223L14.9831 97.3384Z" fill="#B16A6C"/>
<path d="M0.576279 106.096H23.6271L54.7458 137.625L9.22034 137.042C2.30509 124.897 0.576279 111.351 0.576279 106.096Z" fill="#B16A6C"/>
<path d="M14.4068 145.8H62.8136L95.0847 177.912C53.1322 187.721 23.8192 160.591 14.4068 145.8Z" fill="#B16A6C"/>
<path d="M100.847 170.906L76.0678 146.967L75.4915 146.383H100.847C101.308 153.857 101.04 165.846 100.847 170.906Z" fill="#B16A6C"/>
</svg>
